<?xml version="1.0" encoding="utf-8"?>
<!-- Generator: Adobe Illustrator 20.1.0, SVG Export Plug-In . SVG Version: 6.00 Build 0)  -->
<svg version="1.1" id="Layer_1" xmlns="http://www.w3.org/2000/svg" xmlns:xlink="http://www.w3.org/1999/xlink" x="0px" y="0px"
	 viewBox="0 0 140 70" style="enable-background:new 0 0 140 70;" xml:space="preserve">
<style type="text/css">
	.st0{fill:#818A99;}
</style>
<title>5_5.1_70x90_Helicopter</title>
<path class="st0" d="M133.1,27.9c-15.5-2.1-31.2-3.2-46.9-3.4l0,0v-2.4H82v1.4l0,0l-44.7-0.4l0,0l-1.6,1.2L82.1,25v1l-10.6,0.1l0,0
	l-6.4,2.3l0,0h-4.9l0,0v2.4h1.1v1.3l0,0l-23.1,1.5l0,0v-1.5h-1.5v1.5h-7L20.4,26h10.1v-2.6H23v1h-2.5v-1.4h-1.1v-9.4h-2.9v7.3h1.8
	v2.5h-1.4V22H11v1H9.5v1.5H6.8v2h4.6l4.4,5.8l0,0v4h-2.9v3.5h3.4v1h2.4v-1.4l0,0l9.8,0.5l0,0l2.6,1.2l0,0h20.2l0,0l6.5,5.3l0,0v3
	h11.8c-0.8,0.8-0.7,2.1,0.1,2.9c0.8,0.8,2.1,0.7,2.9-0.1c0.8-0.8,0.8-2,0-2.8h35.6V51l0,0c-0.8,0.2-1.2,0.9-1.3,1.7
	c0.2,1.2,1.3,2,2.5,1.8c0.9-0.1,1.6-0.9,1.8-1.8c-0.1-0.9-0.7-1.5-1.5-1.8l0,0v-1.5h7.6c0,0-0.6,1.1,0,1.1h3.4v-5.8l0,0
	c0,0-9-9.7-16-11.7l0,0l-0.5-1.9h-1.8l-0.4,1.1l0,0l-10.1-1.9c0,0-4.4-0.5-5.3-4.2l0,0c0,0,40.7,1.2,46.6,3.4l0,0L133.1,27.9
	L133.1,27.9z"/>
</svg>
