<?xml version="1.0" encoding="utf-8"?>
<!-- Generator: Adobe Illustrator 20.1.0, SVG Export Plug-In . SVG Version: 6.00 Build 0)  -->
<svg version="1.1" id="Layer_1" xmlns="http://www.w3.org/2000/svg" xmlns:xlink="http://www.w3.org/1999/xlink" x="0px" y="0px"
	 viewBox="0 0 140 70" style="enable-background:new 0 0 140 70;" xml:space="preserve">
<style type="text/css">
	.st0{fill:#818A99;}
</style>
<title>5_5.1_70x90_People</title>
<g>
	<path class="st0" d="M51.5,55.3c-1.5,0-2-0.4-2.1-2c0-1.3,0-2.8,0-4.1s0.2-1.7,1.4-2.1c4.1-1.5,7.9-3.5,11.7-5.8
		c0.7-0.4,1.3-1,2-1.5c0.8-0.7,0.9-1.8,0.2-2.5l-0.1-0.1c-0.7-0.9-1.2-1.9-1.8-2.9c-0.4-1.1-1-2.2-1.8-3.2c-0.8-1-0.8-2.3-0.1-3.3
		c0.2-0.4,0.3-0.9,0.3-1.3c0-1.5,0-3,0-4.5c0-3.3,2.3-6.3,5.6-6.9c2.4-0.7,4.8-0.6,7.2,0.2c2.9,0.9,4.8,3.6,4.8,6.6
		c0,1.5,0,3.1,0.1,4.6c0,0.4,0.1,0.9,0.3,1.3c0.7,1.3,0.6,2.9-0.4,4c-0.3,0.3-0.5,0.7-0.7,1.1c-0.5,1.7-1.4,3.1-2.4,4.4
		c-0.7,0.7-0.7,1.8,0,2.4c0.6,0.7,1.2,1.2,2,1.6c3.7,2.4,7.6,4.4,11.8,5.9c1.3,0.5,1.5,0.8,1.5,2.2s0,2.8,0,4.2
		c0,1.4-0.5,1.9-1.9,1.9L51.5,55.3z"/>
	<path class="st0" d="M93.9,55.3c0-2.4,0.1-4.6,0-6.9c-0.1-1.6-1.1-3.2-2.8-3.8c-1.5-0.7-3.1-1.4-4.6-2.2c-2-1-3.4-2.8-4.1-4.8
		c-0.2-0.4-0.4-0.8-0.7-1.2c-0.7-0.9-0.9-2-0.3-3c0.1-0.3,0.2-0.8,0.2-1.1c0-1.1,0-2.2,0-3.3c0-2.9,2.1-5.3,4.8-5.7
		c1.7-0.3,3.3-0.3,4.8,0.1c2.4,0.5,4.2,2.8,4.2,5.3c0,0.9,0,1.8,0.1,2.8c0,0.9,0.1,1.7,0.4,2.5c0.4,0.9,0.2,2-0.6,2.6
		c-0.2,0.1-0.3,0.3-0.4,0.5c-0.4,1.4-1.2,2.9-2.2,4.1c-0.4,0.6-0.3,1.4,0.3,1.8l0,0c0.7,0.7,1.4,1.2,2.2,1.7
		c2.9,1.4,5.6,2.9,8.5,4.2c1.1,0.5,1.2,0.5,1.2,1.9s0,2.3,0,3.4c0.1,0.5-0.3,1.1-1,1.2H104C100.6,55.3,97.2,55.3,93.9,55.3z"/>
	<path class="st0" d="M46.1,55.3c0-2.4-0.1-4.6,0-6.9c0.1-1.6,1.1-3.2,2.8-3.8c1.5-0.7,3.1-1.4,4.6-2.2c2-1,3.4-2.8,4.1-4.8
		c0.2-0.4,0.4-0.8,0.7-1.2c0.7-0.9,0.9-2,0.3-3c-0.1-0.3-0.2-0.8-0.2-1.1c0-1.1,0-2.2,0-3.3c0-2.9-2.1-5.3-4.8-5.7
		c-1.7-0.3-3.3-0.3-4.8,0.1c-2.4,0.5-4.2,2.8-4.2,5.3c0,0.9,0,1.8-0.1,2.8c0,0.9-0.1,1.7-0.4,2.5c-0.4,0.9-0.2,2,0.5,2.6
		c0.2,0.1,0.3,0.3,0.4,0.5c0.4,1.4,1.2,2.9,2.2,4.1c0.4,0.6,0.3,1.4-0.3,1.8l0,0c-0.7,0.7-1.4,1.2-2.2,1.7c-2.9,1.4-5.6,2.9-8.5,4.2
		c-1.1,0.5-1.2,0.5-1.2,1.9c0,1.2,0,2.3,0,3.4c-0.1,0.5,0.3,1.1,1,1.2H36C39.4,55.3,42.8,55.3,46.1,55.3z"/>
</g>
</svg>
