<?xml version="1.0" encoding="utf-8"?>
<!-- Generator: Adobe Illustrator 20.1.0, SVG Export Plug-In . SVG Version: 6.00 Build 0)  -->
<svg version="1.1" id="Layer_1" xmlns="http://www.w3.org/2000/svg" xmlns:xlink="http://www.w3.org/1999/xlink" x="0px" y="0px"
	 viewBox="0 0 140 70" style="enable-background:new 0 0 140 70;" xml:space="preserve">
<style type="text/css">
	.st0{fill:#818A99;}
</style>
<title>5_5.1_70x90_Ship</title>
<g>
	<path class="st0" d="M138.8,41.5h-22.3c-0.2-3.9-3.8-6.2-9.4-6.1v6.1H101c-0.7-0.1-1.3-0.2-1.9-0.6c-0.7-0.2-1.3-0.9-2-0.9
		c-3.9,0-7.8,0-11.9,0v-6.3h-4.3v-8.2l0,0c1.1,0,2-0.9,2-2s-0.9-2-2-2h-4.3c-1.1,0-2,0.9-2,2s0.9,2,2,2l0,0v8.3h-4.9l-0.9-18.4
		l3.3-0.3v-0.6l-3.6-0.7V8.1h-0.4l-0.3,6.2l-3.4,0.3v0.6l3.5,0.3l-1.1,18.6h-8.6v4.3l-2,0.7v3.6h-18l-0.3,3.8h-5.1
		c-0.1-4-3.6-6.3-9.4-6.3v6.3h-3.5l-0.3,2.6h-4.7v-6.5c-5.8,0-9.4,2.4-9.4,6.5H1.1l-0.6,0.7c1.9,1.7,3.6,3.5,5.5,5.1
		c0.8,0.7,1.8,1,2.8,1.1c39.5,0,79,0,118.5,0c1-0.1,1.9-0.6,2.5-1.3c3.1-3.9,6.1-7.9,9-11.9c0.2-0.4,0.6-0.8,0.7-1.2H138.8z"/>
	<path class="st0" d="M8.7,43.6l-5.4-1.9l-0.3,0.9l5.4,2L8.7,43.6z"/>
	<path class="st0" d="M39.3,40.2L39,39.3l-5.4,1.9l0.3,0.9L39.3,40.2z"/>
	<path class="st0" d="M121,35.3l-0.3-0.9l-5.4,1.8l0.3,0.9L121,35.3z"/>
</g>
</svg>
