<?xml version="1.0" encoding="utf-8"?>
<!-- Generator: Adobe Illustrator 22.0.1, SVG Export Plug-In . SVG Version: 6.00 Build 0)  -->
<svg version="1.1" id="Layer_1" xmlns="http://www.w3.org/2000/svg" xmlns:xlink="http://www.w3.org/1999/xlink" x="0px" y="0px"
	 width="140px" height="70px" viewBox="0 0 140 70" style="enable-background:new 0 0 140 70;" xml:space="preserve">
<style type="text/css">
	.st0{fill:#818998;}
</style>
<title>5_5.1_70x90_Ship</title>
<path class="st0" d="M119.8,49L119.8,49v-2.1c0-0.3-0.2-0.5-0.5-0.5s-0.5,0.2-0.5,0.5v1.9c-1.3-0.2-2.4-0.3-3.1-0.3
	c-2.3,0-11.8,0-20.2,0c-0.8-0.5-1-1.1-1-1.1s-0.7-4.5-0.8-5.4c-0.1-0.9-1.1-1.3-1.1-1.3s-17.4,0-19.3,0c-1.9,0-3,1-3,1l-4.3,6
	c-4.2-0.2-8.1-0.4-10.1-0.4c0,0-27,0-29.6,0s-5.8,0.9-5.8,0.9l-9.6,4.1l-0.4-5.4c0,0-0.8-0.4-2.5-0.4c-1.6,0-3.9,0.4-3.9,0.4v6.4
	h4.8h2H134C133.5,52,125.4,49.8,119.8,49z"/>
</svg>
